<svg xmlns="http://www.w3.org/2000/svg" viewBox="0 0 1200 675" role="img" aria-label="Pasaje Siniestro: la casona del terror"><defs>
  <radialGradient id="pk" cx=".38" cy=".32" r=".85">
    <stop offset="0" stop-color="#ff9a3c"/><stop offset=".55" stop-color="#ff6a13"/><stop offset="1" stop-color="#8a3208"/>
  </radialGradient>
  <radialGradient id="pkLit" cx=".5" cy=".45" r=".8">
    <stop offset="0" stop-color="#ffd9a0"/><stop offset=".45" stop-color="#ff9a3c"/><stop offset="1" stop-color="#8a3208"/>
  </radialGradient>
  <filter id="glow" x="-120%" y="-120%" width="340%" height="340%">
    <feGaussianBlur stdDeviation="6" result="b"/>
    <feMerge><feMergeNode in="b"/><feMergeNode in="SourceGraphic"/></feMerge>
  </filter>
  <filter id="glowBig" x="-150%" y="-150%" width="400%" height="400%">
    <feGaussianBlur stdDeviation="16" result="b"/>
    <feMerge><feMergeNode in="b"/><feMergeNode in="SourceGraphic"/></feMerge>
  </filter>
</defs><rect width="1200" height="675" fill="url(#skyP)"/>
<defs><linearGradient id="skyP" x1="0" y1="0" x2="0" y2="1">
  <stop offset="0" stop-color="#0b0510"/><stop offset=".5" stop-color="#1b0a1f"/><stop offset="1" stop-color="#2a0d12"/>
</linearGradient>
<radialGradient id="fogP" cx=".5" cy=".5" r=".5">
  <stop offset="0" stop-color="#9d4edd" stop-opacity=".4"/><stop offset="1" stop-opacity="0"/>
</radialGradient>
<linearGradient id="winP" x1="0" y1="0" x2="0" y2="1">
  <stop offset="0" stop-color="#ffd9a0"/><stop offset="1" stop-color="#ff6a13"/>
</linearGradient></defs><circle cx="782" cy="341" r="1.7" fill="#ffd9a0" opacity="0.50"/><circle cx="469" cy="106" r="1.9" fill="#ffd9a0" opacity="0.76"/><circle cx="1129" cy="139" r="1.9" fill="#ffd9a0" opacity="0.79"/><circle cx="754" cy="156" r="1.1" fill="#ffd9a0" opacity="0.75"/><circle cx="646" cy="343" r="1.5" fill="#ffd9a0" opacity="0.60"/><circle cx="234" cy="254" r="0.9" fill="#ffd9a0" opacity="0.37"/><circle cx="191" cy="262" r="1.9" fill="#ffd9a0" opacity="0.62"/><circle cx="1020" cy="281" r="1.8" fill="#ffd9a0" opacity="0.62"/><circle cx="446" cy="191" r="0.9" fill="#ffd9a0" opacity="0.37"/><circle cx="725" cy="89" r="1.5" fill="#ffd9a0" opacity="0.68"/><circle cx="489" cy="323" r="1.1" fill="#ffd9a0" opacity="0.69"/><circle cx="1033" cy="186" r="1.4" fill="#ffd9a0" opacity="0.59"/><circle cx="600" cy="76" r="0.6" fill="#ffd9a0" opacity="0.52"/><circle cx="234" cy="328" r="1.7" fill="#ffd9a0" opacity="0.64"/><circle cx="80" cy="69" r="0.8" fill="#ffd9a0" opacity="0.60"/><circle cx="508" cy="200" r="1.4" fill="#ffd9a0" opacity="0.58"/><circle cx="197" cy="231" r="1.1" fill="#ffd9a0" opacity="0.47"/><circle cx="1062" cy="53" r="1.8" fill="#ffd9a0" opacity="0.37"/><circle cx="891" cy="101" r="0.6" fill="#ffd9a0" opacity="0.36"/><circle cx="254" cy="82" r="1.0" fill="#ffd9a0" opacity="0.42"/><circle cx="975" cy="20" r="0.7" fill="#ffd9a0" opacity="0.79"/><circle cx="956" cy="347" r="1.5" fill="#ffd9a0" opacity="0.80"/><circle cx="382" cy="118" r="1.2" fill="#ffd9a0" opacity="0.40"/><circle cx="556" cy="188" r="0.8" fill="#ffd9a0" opacity="0.79"/><circle cx="533" cy="299" r="1.9" fill="#ffd9a0" opacity="0.42"/><circle cx="1089" cy="272" r="1.0" fill="#ffd9a0" opacity="0.35"/><circle cx="613" cy="127" r="0.9" fill="#ffd9a0" opacity="0.58"/><circle cx="57" cy="127" r="1.7" fill="#ffd9a0" opacity="0.46"/><circle cx="628" cy="95" r="1.3" fill="#ffd9a0" opacity="0.68"/><circle cx="337" cy="95" r="0.8" fill="#ffd9a0" opacity="0.57"/><circle cx="63" cy="173" r="1.9" fill="#ffd9a0" opacity="0.27"/><circle cx="829" cy="18" r="0.9" fill="#ffd9a0" opacity="0.49"/><circle cx="835" cy="275" r="1.7" fill="#ffd9a0" opacity="0.65"/><circle cx="1012" cy="7" r="1.1" fill="#ffd9a0" opacity="0.31"/><circle cx="1071" cy="348" r="1.9" fill="#ffd9a0" opacity="0.26"/><circle cx="53" cy="210" r="1.5" fill="#ffd9a0" opacity="0.59"/><circle cx="906" cy="216" r="1.8" fill="#ffd9a0" opacity="0.68"/><circle cx="148" cy="72" r="1.3" fill="#ffd9a0" opacity="0.71"/><circle cx="658" cy="84" r="1.6" fill="#ffd9a0" opacity="0.39"/><circle cx="599" cy="291" r="1.0" fill="#ffd9a0" opacity="0.34"/><circle cx="615" cy="214" r="0.7" fill="#ffd9a0" opacity="0.27"/><circle cx="194" cy="183" r="1.6" fill="#ffd9a0" opacity="0.59"/><circle cx="576" cy="284" r="1.6" fill="#ffd9a0" opacity="0.48"/><circle cx="947" cy="23" r="0.9" fill="#ffd9a0" opacity="0.42"/><circle cx="359" cy="167" r="0.7" fill="#ffd9a0" opacity="0.80"/><circle cx="850" cy="56" r="1.1" fill="#ffd9a0" opacity="0.53"/><circle cx="411" cy="255" r="1.6" fill="#ffd9a0" opacity="0.42"/><circle cx="221" cy="107" r="0.7" fill="#ffd9a0" opacity="0.70"/><circle cx="25" cy="19" r="1.5" fill="#ffd9a0" opacity="0.35"/><circle cx="743" cy="110" r="0.9" fill="#ffd9a0" opacity="0.67"/><circle cx="561" cy="131" r="0.8" fill="#ffd9a0" opacity="0.62"/><circle cx="486" cy="343" r="0.7" fill="#ffd9a0" opacity="0.71"/><circle cx="876" cy="30" r="1.8" fill="#ffd9a0" opacity="0.76"/><circle cx="409" cy="100" r="1.0" fill="#ffd9a0" opacity="0.62"/><circle cx="383" cy="22" r="1.5" fill="#ffd9a0" opacity="0.27"/><circle cx="884" cy="86" r="1.7" fill="#ffd9a0" opacity="0.68"/><circle cx="567" cy="143" r="0.7" fill="#ffd9a0" opacity="0.36"/><circle cx="552" cy="120" r="1.9" fill="#ffd9a0" opacity="0.53"/><circle cx="503" cy="215" r="1.5" fill="#ffd9a0" opacity="0.42"/><circle cx="439" cy="109" r="1.2" fill="#ffd9a0" opacity="0.47"/><circle cx="814" cy="208" r="1.6" fill="#ffd9a0" opacity="0.57"/><circle cx="1" cy="245" r="1.4" fill="#ffd9a0" opacity="0.79"/><circle cx="434" cy="89" r="1.7" fill="#ffd9a0" opacity="0.45"/><circle cx="286" cy="254" r="0.9" fill="#ffd9a0" opacity="0.71"/><circle cx="817" cy="51" r="0.9" fill="#ffd9a0" opacity="0.27"/><circle cx="1110" cy="274" r="1.2" fill="#ffd9a0" opacity="0.63"/><circle cx="903" cy="272" r="1.2" fill="#ffd9a0" opacity="0.37"/><circle cx="592" cy="73" r="0.6" fill="#ffd9a0" opacity="0.40"/><circle cx="766" cy="280" r="0.7" fill="#ffd9a0" opacity="0.56"/><circle cx="368" cy="324" r="0.8" fill="#ffd9a0" opacity="0.46"/><circle cx="180" cy="120" r="90" fill="url(#fogP)"/><circle cx="180" cy="120" r="40" fill="#ffd9a0" opacity=".92"/><ellipse cx="600" cy="520" rx="560" ry="180" fill="url(#fogP)" opacity=".8"/><g fill="#0a0507">
  <rect x="450" y="290" width="380" height="180"/>
  <path d="M425 290 L640 165 L855 290 Z"/>
  <rect x="380" y="350" width="80" height="120"/>
  <path d="M368 350 L420 294 L472 350 Z"/>
  <rect x="820" y="330" width="90" height="140"/>
  <path d="M808 330 L865 265 L922 330 Z"/>
  <rect x="610" y="180" width="18" height="60"/>
</g><rect x="490" y="320" width="42" height="56" rx="4" fill="url(#winP)" filter="url(#glow)" opacity=".95"/><line x1="511" y1="320" x2="511" y2="376" stroke="#0a0507" stroke-width="3"/><rect x="580" y="320" width="42" height="56" rx="4" fill="url(#winP)" filter="url(#glow)" opacity=".95"/><line x1="601" y1="320" x2="601" y2="376" stroke="#0a0507" stroke-width="3"/><rect x="670" y="320" width="42" height="56" rx="4" fill="url(#winP)" filter="url(#glow)" opacity=".95"/><line x1="691" y1="320" x2="691" y2="376" stroke="#0a0507" stroke-width="3"/><rect x="755" y="320" width="42" height="56" rx="4" fill="url(#winP)" filter="url(#glow)" opacity=".95"/><line x1="776" y1="320" x2="776" y2="376" stroke="#0a0507" stroke-width="3"/><rect x="400" y="375" width="36" height="48" rx="4" fill="url(#winP)" filter="url(#glow)" opacity=".95"/><line x1="418" y1="375" x2="418" y2="423" stroke="#0a0507" stroke-width="3"/><rect x="842" y="360" width="44" height="52" rx="4" fill="url(#winP)" filter="url(#glow)" opacity=".95"/><line x1="864" y1="360" x2="864" y2="412" stroke="#0a0507" stroke-width="3"/><path d="M612 470 v-64 a28 28 0 0 1 56 0 v64 z" fill="url(#winP)" filter="url(#glowBig)"/><path transform="translate(430 200) scale(1.5 1.5)" fill="#0a0507" opacity=".9" d="M0 0 q-6-8 -14-6 q2 3 1 6 q-8-4 -16 2 q6 1 8 6 q8-4 14 0 l7-8 l7 8 q6-4 14 0 q2-5 8-6 q-8-6 -16-2 q1-3 1-6 q-8-2 -14 6 z"/><path transform="translate(830 150) scale(-1.2 1.2)" fill="#0a0507" opacity=".9" d="M0 0 q-6-8 -14-6 q2 3 1 6 q-8-4 -16 2 q6 1 8 6 q8-4 14 0 l7-8 l7 8 q6-4 14 0 q2-5 8-6 q-8-6 -16-2 q1-3 1-6 q-8-2 -14 6 z"/><path transform="translate(920 250) scale(0.9 0.9)" fill="#0a0507" opacity=".9" d="M0 0 q-6-8 -14-6 q2 3 1 6 q-8-4 -16 2 q6 1 8 6 q8-4 14 0 l7-8 l7 8 q6-4 14 0 q2-5 8-6 q-8-6 -16-2 q1-3 1-6 q-8-2 -14 6 z"/><path transform="translate(350 300) scale(-1.0 1.0)" fill="#0a0507" opacity=".9" d="M0 0 q-6-8 -14-6 q2 3 1 6 q-8-4 -16 2 q6 1 8 6 q8-4 14 0 l7-8 l7 8 q6-4 14 0 q2-5 8-6 q-8-6 -16-2 q1-3 1-6 q-8-2 -14 6 z"/><rect y="530" width="1200" height="145" fill="#0d0709"/><rect x="0" y="470" width="7" height="90" fill="#120a0e"/><path d="M-4 474 l7.5 -16 l7.5 16 z" fill="#120a0e"/><rect x="46" y="470" width="7" height="90" fill="#120a0e"/><path d="M42 474 l7.5 -16 l7.5 16 z" fill="#120a0e"/><rect x="92" y="470" width="7" height="90" fill="#120a0e"/><path d="M88 474 l7.5 -16 l7.5 16 z" fill="#120a0e"/><rect x="138" y="470" width="7" height="90" fill="#120a0e"/><path d="M134 474 l7.5 -16 l7.5 16 z" fill="#120a0e"/><rect x="184" y="470" width="7" height="90" fill="#120a0e"/><path d="M180 474 l7.5 -16 l7.5 16 z" fill="#120a0e"/><rect x="230" y="470" width="7" height="90" fill="#120a0e"/><path d="M226 474 l7.5 -16 l7.5 16 z" fill="#120a0e"/><rect x="276" y="470" width="7" height="90" fill="#120a0e"/><path d="M272 474 l7.5 -16 l7.5 16 z" fill="#120a0e"/><rect x="322" y="470" width="7" height="90" fill="#120a0e"/><path d="M318 474 l7.5 -16 l7.5 16 z" fill="#120a0e"/><rect x="368" y="470" width="7" height="90" fill="#120a0e"/><path d="M364 474 l7.5 -16 l7.5 16 z" fill="#120a0e"/><rect x="414" y="470" width="7" height="90" fill="#120a0e"/><path d="M410 474 l7.5 -16 l7.5 16 z" fill="#120a0e"/><rect x="460" y="470" width="7" height="90" fill="#120a0e"/><path d="M456 474 l7.5 -16 l7.5 16 z" fill="#120a0e"/><rect x="506" y="470" width="7" height="90" fill="#120a0e"/><path d="M502 474 l7.5 -16 l7.5 16 z" fill="#120a0e"/><rect x="552" y="470" width="7" height="90" fill="#120a0e"/><path d="M548 474 l7.5 -16 l7.5 16 z" fill="#120a0e"/><rect x="598" y="470" width="7" height="90" fill="#120a0e"/><path d="M594 474 l7.5 -16 l7.5 16 z" fill="#120a0e"/><rect x="644" y="470" width="7" height="90" fill="#120a0e"/><path d="M640 474 l7.5 -16 l7.5 16 z" fill="#120a0e"/><rect x="690" y="470" width="7" height="90" fill="#120a0e"/><path d="M686 474 l7.5 -16 l7.5 16 z" fill="#120a0e"/><rect x="736" y="470" width="7" height="90" fill="#120a0e"/><path d="M732 474 l7.5 -16 l7.5 16 z" fill="#120a0e"/><rect x="782" y="470" width="7" height="90" fill="#120a0e"/><path d="M778 474 l7.5 -16 l7.5 16 z" fill="#120a0e"/><rect x="828" y="470" width="7" height="90" fill="#120a0e"/><path d="M824 474 l7.5 -16 l7.5 16 z" fill="#120a0e"/><rect x="874" y="470" width="7" height="90" fill="#120a0e"/><path d="M870 474 l7.5 -16 l7.5 16 z" fill="#120a0e"/><rect x="920" y="470" width="7" height="90" fill="#120a0e"/><path d="M916 474 l7.5 -16 l7.5 16 z" fill="#120a0e"/><rect x="966" y="470" width="7" height="90" fill="#120a0e"/><path d="M962 474 l7.5 -16 l7.5 16 z" fill="#120a0e"/><rect x="1012" y="470" width="7" height="90" fill="#120a0e"/><path d="M1008 474 l7.5 -16 l7.5 16 z" fill="#120a0e"/><rect x="1058" y="470" width="7" height="90" fill="#120a0e"/><path d="M1054 474 l7.5 -16 l7.5 16 z" fill="#120a0e"/><rect x="1104" y="470" width="7" height="90" fill="#120a0e"/><path d="M1100 474 l7.5 -16 l7.5 16 z" fill="#120a0e"/><rect x="1150" y="470" width="7" height="90" fill="#120a0e"/><path d="M1146 474 l7.5 -16 l7.5 16 z" fill="#120a0e"/><rect x="1196" y="470" width="7" height="90" fill="#120a0e"/><path d="M1192 474 l7.5 -16 l7.5 16 z" fill="#120a0e"/><rect y="465" width="1200" height="9" fill="#120a0e"/><g transform="translate(90 610)"><path d="M33 -13 c-4 -13 3 -19 11 -22" stroke="#4f7a2a" stroke-width="4" fill="none" stroke-linecap="round"/><ellipse cx="33" cy="0" rx="33" ry="24" fill="url(#pkLit)"/><ellipse cx="33" cy="0" rx="20" ry="24" fill="#000" opacity=".12"/><ellipse cx="33" cy="0" rx="9" ry="24" fill="#000" opacity=".10"/><g fill="#ffd9a0" filter="url(#glow)"><path d="M20 -5 l7 -6 l2 8 z"/><path d="M46 -5 l-7 -6 l-2 8 z"/><path d="M18 7 q15 10 29 0 q-5 2 -8 -1 q-7 4 -13 0 q-3 2 -8 1 z"/></g></g><g transform="translate(1060 610)"><path d="M36 -15 c-4 -15 3 -21 12 -24" stroke="#4f7a2a" stroke-width="4" fill="none" stroke-linecap="round"/><ellipse cx="36" cy="0" rx="36" ry="26" fill="url(#pkLit)"/><ellipse cx="36" cy="0" rx="22" ry="26" fill="#000" opacity=".12"/><ellipse cx="36" cy="0" rx="9" ry="26" fill="#000" opacity=".10"/><g fill="#ffd9a0" filter="url(#glow)"><path d="M22 -5 l8 -6 l2 9 z"/><path d="M50 -5 l-8 -6 l-2 9 z"/><path d="M20 7 q16 10 32 0 q-6 3 -9 -1 q-7 5 -14 0 q-4 3 -9 1 z"/></g></g></svg>